  0
SECTION
  2
HEADER
  9
$ACADVER
  1
AC1009
  9
$INSBASE
 10
0.0
 20
0.0
 30
0.0
  9
$EXTMIN
 10
0.0
 20
0.0
 30
0.0
  9
$EXTMAX
 10
0.0
 20
0.0
 30
0.0
  0
ENDSEC
  0
SECTION
  2
TABLES
  0
TABLE
  2
VPORT
 70
0
  0
ENDTAB
  0
TABLE
  2
LTYPE
 70
1
  0
LTYPE
  2
CONTINUOUS
 70
0
  3
Solid line
 72
65
 73
0
 40
0.0
  0
ENDTAB
  0
TABLE
  2
LAYER
 70
1
  0
LAYER
  2
PYDXF
 70
64
 62
7
  6
continuous
  0
ENDTAB
  0
TABLE
  2
STYLE
 70
1
  0
STYLE
  2
STANDARD
 70
0
 40
0
 41
1.0
 50
0.0
 71
0
 42
1
 3
ARIAL.TTF
 4

  0
ENDTAB
  0
TABLE
  2
VIEW
 70
0
  0
ENDTAB
  0
ENDSEC
  0
SECTION
  2
BLOCKS
  0
BLOCK
  8
0
  2
COMMON
 70
0
 10
0.0
 20
0.0
 30
0.0
  3
COMMON
  0
POLYLINE
  8
0
 62
0
 70
1
 66
1
 10
0.0
 20
0.0
 30
0.0
  0
VERTEX
  8
0
 10
8.38329177243
 20
49.9
  0
VERTEX
  8
0
 10
8.38329177243
 20
36.9901402061
  0
VERTEX
  8
0
 10
11.4167082276
 20
36.9901402061
  0
VERTEX
  8
0
 10
11.4167082276
 20
49.9
  0
SEQEND
  8
0
  0
POLYLINE
  8
0
 62
0
 70
1
 66
1
 10
0.0
 20
0.0
 30
0.0
  0
VERTEX
  8
0
 10
1.0168838501
 20
49.9
 42
-0.196196664707
  0
VERTEX
  8
0
 10
8.38329177243
 20
49.9
  0
VERTEX
  8
0
 10
8.38329177243
 20
36.9901402061
 42
0.196196664707
  0
VERTEX
  8
0
 10
1.0168838501
 20
36.9901402061
  0
SEQEND
  8
0
  0
POLYLINE
  8
0
 62
0
 70
1
 66
1
 10
0.0
 20
0.0
 30
0.0
  0
VERTEX
  8
0
 10
18.8168830872
 20
36.9901402061
  0
VERTEX
  8
0
 10
18.8168830872
 20
36.9901402061
 42
0.208579881431
  0
VERTEX
  8
0
 10
10.9397474433
 20
36.9901402061
  0
VERTEX
  8
0
 10
8.86025255669
 20
36.9901402061
 42
0.207300067923
  0
VERTEX
  8
0
 10
1.0168838501
 20
36.9901402061
  0
VERTEX
  8
0
 10
1.0168838501
 20
36.9901402061
 42
0.196196664707
  0
VERTEX
  8
0
 10
8.38329177243
 20
36.9901402061
  0
VERTEX
  8
0
 10
11.4167082276
 20
36.9901402061
 42
0.197470963298
  0
SEQEND
  8
0
  0
POLYLINE
  8
0
 62
0
 70
1
 66
1
 10
0.0
 20
0.0
 30
0.0
  0
VERTEX
  8
0
 10
11.4167082276
 20
49.9
  0
VERTEX
  8
0
 10
11.4167082276
 20
36.9901402061
 42
0.197470963298
  0
VERTEX
  8
0
 10
18.8168830872
 20
36.9901402061
  0
VERTEX
  8
0
 10
18.8168830872
 20
49.9
 42
0.197470963298
  0
SEQEND
  8
0
  0
POLYLINE
  8
0
 62
0
 70
1
 66
1
 10
0.0
 20
0.0
 30
0.0
  0
VERTEX
  8
0
 10
11.4167082276
 20
49.9
 42
-0.197470963298
  0
VERTEX
  8
0
 10
18.8168830872
 20
49.9
  0
VERTEX
  8
0
 10
18.8168830872
 20
49.9
 42
-0.208579881431
  0
VERTEX
  8
0
 10
10.9397474433
 20
49.9
  0
VERTEX
  8
0
 10
8.86025255669
 20
49.9
 42
-0.207300067923
  0
VERTEX
  8
0
 10
1.0168838501
 20
49.9
  0
VERTEX
  8
0
 10
1.0168838501
 20
49.9
 42
-0.196196664707
  0
VERTEX
  8
0
 10
8.38329177243
 20
49.9
  0
SEQEND
  8
0
  0
POLYLINE
  8
0
 62
0
 70
1
 66
1
 10
0.0
 20
0.0
 30
0.0
  0
VERTEX
  8
0
 10
1.0168838501
 20
49.9
  0
VERTEX
  8
0
 10
1.0168838501
 20
36.9901402061
  0
VERTEX
  8
0
 10
1.0168838501
 20
36.9901402061
  0
VERTEX
  8
0
 10
1.0168838501
 20
49.9
  0
SEQEND
  8
0
  0
POLYLINE
  8
0
 62
0
 70
1
 66
1
 10
0.0
 20
0.0
 30
0.0
  0
VERTEX
  8
0
 10
18.8168830872
 20
49.9
  0
VERTEX
  8
0
 10
18.8168830872
 20
36.9901402061
  0
VERTEX
  8
0
 10
18.8168830872
 20
36.9901402061
  0
VERTEX
  8
0
 10
18.8168830872
 20
49.9
  0
SEQEND
  8
0
  0
POLYLINE
  8
0
 62
0
 70
1
 66
1
 10
0.0
 20
0.0
 30
0.0
  0
VERTEX
  8
0
 10
18.8168830872
 20
49.9
  0
VERTEX
  8
0
 10
18.8168830872
 20
36.9901402061
 42
0.208579881431
  0
VERTEX
  8
0
 10
10.9397474433
 20
36.9901402061
  0
VERTEX
  8
0
 10
10.9397474433
 20
49.9
 42
0.208579881431
  0
SEQEND
  8
0
  0
POLYLINE
  8
0
 62
0
 70
1
 66
1
 10
0.0
 20
0.0
 30
0.0
  0
VERTEX
  8
0
 10
10.9397474433
 20
49.9
  0
VERTEX
  8
0
 10
10.9397474433
 20
36.9901402061
  0
VERTEX
  8
0
 10
8.86025255669
 20
36.9901402061
  0
VERTEX
  8
0
 10
8.86025255669
 20
49.9
  0
SEQEND
  8
0
  0
POLYLINE
  8
0
 62
0
 70
1
 66
1
 10
0.0
 20
0.0
 30
0.0
  0
VERTEX
  8
0
 10
8.86025255669
 20
49.9
 42
-0.207300067923
  0
VERTEX
  8
0
 10
1.0168838501
 20
49.9
  0
VERTEX
  8
0
 10
1.0168838501
 20
36.9901402061
 42
0.207300067923
  0
VERTEX
  8
0
 10
8.86025255669
 20
36.9901402061
  0
SEQEND
  8
0
  0
ENDBLK
  0
BLOCK
  8
0
  2
FILLET002
 70
0
 10
0.0
 20
0.0
 30
0.0
  3
FILLET002
  0
POLYLINE
  8
0
 62
0
 70
1
 66
1
 10
0.0
 20
0.0
 30
0.0
  0
VERTEX
  8
0
 10
1.773841
 20
64.88502
  0
VERTEX
  8
0
 10
1.773841
 20
64.88502
 42
0.853044113271
  0
VERTEX
  8
0
 10
17.5738411907
 20
64.88502
  0
VERTEX
  8
0
 10
17.5738411907
 20
64.88502
 42
0.853044113271
  0
SEQEND
  8
0
  0
POLYLINE
  8
0
 62
0
 70
1
 66
1
 10
0.0
 20
0.0
 30
0.0
  0
VERTEX
  8
0
 10
1.773841
 20
64.88502
  0
VERTEX
  8
0
 10
1.773841
 20
64.88502
  0
VERTEX
  8
0
 10
1.773841
 20
63.88502
  0
VERTEX
  8
0
 10
1.773841
 20
59.88502
  0
VERTEX
  8
0
 10
1.773841
 20
59.88502
  0
VERTEX
  8
0
 10
1.773841
 20
64.88502
  0
SEQEND
  8
0
  0
POLYLINE
  8
0
 62
0
 70
1
 66
1
 10
0.0
 20
0.0
 30
0.0
  0
VERTEX
  8
0
 10
1.773841
 20
64.88502
  0
VERTEX
  8
0
 10
1.773841
 20
63.88502
 42
0.593466821605
  0
VERTEX
  8
0
 10
17.5738411907
 20
64.88502
  0
VERTEX
  8
0
 10
17.5738411907
 20
64.88502
 42
0.853044113271
  0
SEQEND
  8
0
  0
POLYLINE
  8
0
 62
0
 70
1
 66
1
 10
0.0
 20
0.0
 30
0.0
  0
VERTEX
  8
0
 10
17.5738411907
 20
64.88502
  0
VERTEX
  8
0
 10
17.5738411907
 20
63.88502
 42
0.593466821605
  0
VERTEX
  8
0
 10
1.773841
 20
64.88502
  0
VERTEX
  8
0
 10
1.773841
 20
64.88502
 42
0.853044113271
  0
SEQEND
  8
0
  0
POLYLINE
  8
0
 62
0
 70
1
 66
1
 10
0.0
 20
0.0
 30
0.0
  0
VERTEX
  8
0
 10
17.5738411907
 20
64.88502
  0
VERTEX
  8
0
 10
17.5738411907
 20
64.88502
  0
VERTEX
  8
0
 10
17.5738411907
 20
63.88502
  0
VERTEX
  8
0
 10
17.5738411907
 20
59.88502
  0
VERTEX
  8
0
 10
17.5738411907
 20
59.88502
  0
VERTEX
  8
0
 10
17.5738411907
 20
64.88502
  0
SEQEND
  8
0
  0
POLYLINE
  8
0
 62
0
 70
1
 66
1
 10
0.0
 20
0.0
 30
0.0
  0
VERTEX
  8
0
 10
1.773841
 20
63.88502
  0
VERTEX
  8
0
 10
1.773841
 20
59.88502
 42
0.593466821605
  0
VERTEX
  8
0
 10
17.5738411907
 20
59.88502
  0
VERTEX
  8
0
 10
17.5738411907
 20
63.88502
 42
0.593466821605
  0
SEQEND
  8
0
  0
POLYLINE
  8
0
 62
0
 70
1
 66
1
 10
0.0
 20
0.0
 30
0.0
  0
VERTEX
  8
0
 10
17.5738411907
 20
63.88502
  0
VERTEX
  8
0
 10
17.5738411907
 20
59.88502
 42
0.593466821605
  0
VERTEX
  8
0
 10
1.773841
 20
59.88502
  0
VERTEX
  8
0
 10
1.773841
 20
63.88502
 42
0.593466821605
  0
SEQEND
  8
0
  0
POLYLINE
  8
0
 62
0
 70
1
 66
1
 10
0.0
 20
0.0
 30
0.0
  0
VERTEX
  8
0
 10
17.5738411907
 20
59.88502
 42
0.593466821605
  0
VERTEX
  8
0
 10
1.773841
 20
59.88502
  0
VERTEX
  8
0
 10
1.773841
 20
59.88502
 42
0.593466821605
  0
VERTEX
  8
0
 10
17.5738411907
 20
59.88502
  0
SEQEND
  8
0
  0
ENDBLK
  0
BLOCK
  8
0
  2
COMMON002
 70
0
 10
0.0
 20
0.0
 30
0.0
  3
COMMON002
  0
POLYLINE
  8
0
 62
0
 70
1
 66
1
 10
0.0
 20
0.0
 30
0.0
  0
VERTEX
  8
0
 10
17.5845958447
 20
59.8567885006
  0
VERTEX
  8
0
 10
17.5845958447
 20
49.8567885006
  0
VERTEX
  8
0
 10
17.5845958447
 20
49.8567885006
  0
VERTEX
  8
0
 10
17.5845958447
 20
59.8567885006
  0
SEQEND
  8
0
  0
POLYLINE
  8
0
 62
0
 70
1
 66
1
 10
0.0
 20
0.0
 30
0.0
  0
VERTEX
  8
0
 10
1.78459565398
 20
59.8567885006
 42
0.593466821605
  0
VERTEX
  8
0
 10
17.5845958447
 20
59.8567885006
  0
VERTEX
  8
0
 10
17.5845958447
 20
49.8567885006
 42
0.593466821605
  0
VERTEX
  8
0
 10
1.78459565398
 20
49.8567885006
  0
SEQEND
  8
0
  0
POLYLINE
  8
0
 62
0
 70
1
 66
1
 10
0.0
 20
0.0
 30
0.0
  0
VERTEX
  8
0
 10
1.78459565398
 20
49.8567885006
 42
0.593466821605
  0
VERTEX
  8
0
 10
17.5845958447
 20
49.8567885006
  0
VERTEX
  8
0
 10
17.5845958447
 20
49.8567885006
 42
0.593466821605
  0
VERTEX
  8
0
 10
1.78459565398
 20
49.8567885006
  0
SEQEND
  8
0
  0
POLYLINE
  8
0
 62
0
 70
1
 66
1
 10
0.0
 20
0.0
 30
0.0
  0
VERTEX
  8
0
 10
17.5845958447
 20
59.8567885006
 42
0.593466821605
  0
VERTEX
  8
0
 10
1.78459565398
 20
59.8567885006
  0
VERTEX
  8
0
 10
1.78459565398
 20
49.8567885006
 42
0.593466821605
  0
VERTEX
  8
0
 10
17.5845958447
 20
49.8567885006
  0
SEQEND
  8
0
  0
POLYLINE
  8
0
 62
0
 70
1
 66
1
 10
0.0
 20
0.0
 30
0.0
  0
VERTEX
  8
0
 10
1.78459565398
 20
59.8567885006
 42
0.593466821605
  0
VERTEX
  8
0
 10
17.5845958447
 20
59.8567885006
  0
VERTEX
  8
0
 10
17.5845958447
 20
59.8567885006
 42
0.593466821605
  0
VERTEX
  8
0
 10
1.78459565398
 20
59.8567885006
  0
SEQEND
  8
0
  0
POLYLINE
  8
0
 62
0
 70
1
 66
1
 10
0.0
 20
0.0
 30
0.0
  0
VERTEX
  8
0
 10
1.78459565398
 20
59.8567885006
  0
VERTEX
  8
0
 10
1.78459565398
 20
49.8567885006
  0
VERTEX
  8
0
 10
1.78459565398
 20
49.8567885006
  0
VERTEX
  8
0
 10
1.78459565398
 20
59.8567885006
  0
SEQEND
  8
0
  0
ENDBLK
  0
BLOCK
  8
0
  2
CUT002
 70
0
 10
0.0
 20
0.0
 30
0.0
  3
CUT002
  0
POLYLINE
  8
0
 62
0
 70
1
 66
1
 10
0.0
 20
0.0
 30
0.0
  0
VERTEX
  8
0
 10
6.50300216672
 20
66.9001420562
  0
VERTEX
  8
0
 10
6.50300216672
 20
64.9001420562
 42
0.686872177975
  0
VERTEX
  8
0
 10
13.4726066589
 20
64.9001420562
  0
VERTEX
  8
0
 10
13.4726066589
 20
66.9001420562
 42
0.686872177975
  0
SEQEND
  8
0
  0
POLYLINE
  8
0
 62
0
 70
1
 66
1
 10
0.0
 20
0.0
 30
0.0
  0
VERTEX
  8
0
 10
6.50300216672
 20
66.9001420562
  0
VERTEX
  8
0
 10
6.50300216672
 20
64.9001420562
  0
VERTEX
  8
0
 10
6.50300216672
 20
64.9001420562
  0
VERTEX
  8
0
 10
6.50300216672
 20
66.9001420562
  0
SEQEND
  8
0
  0
POLYLINE
  8
0
 62
0
 70
1
 66
1
 10
0.0
 20
0.0
 30
0.0
  0
VERTEX
  8
0
 10
6.50300216672
 20
64.9001420562
  0
VERTEX
  8
0
 10
6.50300216672
 20
64.9001420562
 42
0.686872177975
  0
VERTEX
  8
0
 10
13.4726066589
 20
64.9001420562
 42
0.686872177975
  0
SEQEND
  8
0
  0
POLYLINE
  8
0
 62
0
 70
1
 66
1
 10
0.0
 20
0.0
 30
0.0
  0
VERTEX
  8
0
 10
13.4726066589
 20
66.9001420562
 42
0.686872177975
  0
VERTEX
  8
0
 10
6.50300216672
 20
66.9001420562
  0
VERTEX
  8
0
 10
6.50300216672
 20
64.9001420562
 42
0.686872177975
  0
VERTEX
  8
0
 10
13.4726066589
 20
64.9001420562
  0
SEQEND
  8
0
  0
POLYLINE
  8
0
 62
0
 70
1
 66
1
 10
0.0
 20
0.0
 30
0.0
  0
VERTEX
  8
0
 10
9.5791893005
 20
66.9001420562
 42
-0.414213562373
  0
VERTEX
  8
0
 10
7.5791893005
 20
66.9001420562
 42
0.414213562373
  0
SEQEND
  8
0
  0
POLYLINE
  8
0
 62
0
 70
1
 66
1
 10
0.0
 20
0.0
 30
0.0
  0
VERTEX
  8
0
 10
6.50300216672
 20
66.9001420562
  0
VERTEX
  8
0
 10
6.50300216672
 20
66.9001420562
 42
0.686872177975
  0
VERTEX
  8
0
 10
13.4726066589
 20
66.9001420562
 42
0.686872177975
  0
SEQEND
  8
0
  0
POLYLINE
  8
0
 62
0
 70
0
 66
1
 10
0.0
 20
0.0
 30
0.0
  0
VERTEX
  8
0
 10
7.5791893005
 20
65.9001387827
  0
VERTEX
  8
0
 10
7.5791893005
 20
66.9001420562
 42
0.414213562373
  0
VERTEX
  8
0
 10
9.5791893005
 20
66.9001420562
 42
-0.414213562373
  0
VERTEX
  8
0
 10
7.5791893005
 20
66.9001420562
  0
SEQEND
  8
0
  0
CIRCLE
  8
0
 62
0
 10
9.5791893005
 20
65.9001387827
 30
11.2731800332
 40
2.0
  0
ENDBLK
  0
BLOCK
  8
0
  2
FUSION003
 70
0
 10
0.0
 20
0.0
 30
0.0
  3
FUSION003
  0
CIRCLE
  8
0
 62
0
 10
19.5999996186
 20
11.7246234417
 30
11.1007575989
 40
2.5
  0
POLYLINE
  8
0
 62
0
 70
0
 66
1
 10
0.0
 20
0.0
 30
0.0
  0
VERTEX
  8
0
 10
-0.97000038147
 20
13.26
  0
VERTEX
  8
0
 10
-1.0000007629
 20
13.26
 42
0.231372742434
  0
VERTEX
  8
0
 10
-1.0000007629
 20
14.2246234417
  0
VERTEX
  8
0
 10
19.5999996186
 20
14.2246234417
  0
VERTEX
  8
0
 10
19.5999996186
 20
14.2246234417
  0
SEQEND
  8
0
  0
POLYLINE
  8
0
 62
0
 70
1
 66
1
 10
0.0
 20
0.0
 30
0.0
  0
VERTEX
  8
0
 10
-0.97000038147
 20
13.26
  0
VERTEX
  8
0
 10
-0.97000038147
 20
13.26
  0
VERTEX
  8
0
 10
-1.0000007629
 20
13.26
  0
VERTEX
  8
0
 10
-1.0000007629
 20
13.26
  0
VERTEX
  8
0
 10
-8.9
 20
13.26
  0
VERTEX
  8
0
 10
-8.9
 20
13.26
  0
SEQEND
  8
0
  0
POLYLINE
  8
0
 62
0
 70
1
 66
1
 10
0.0
 20
0.0
 30
0.0
  0
VERTEX
  8
0
 10
-1.0000007629
 20
10.26
 42
0.138890243296
  0
VERTEX
  8
0
 10
-1.0000007629
 20
11.5364536662
  0
VERTEX
  8
0
 10
-1.0000007629
 20
11.9435463338
 42
0.143990508663
  0
VERTEX
  8
0
 10
-1.0000007629
 20
13.26
  0
VERTEX
  8
0
 10
-1.0000007629
 20
13.26
 42
0.231372742434
  0
VERTEX
  8
0
 10
-1.0000007629
 20
14.2246234417
 42
0.611978937988
  0
VERTEX
  8
0
 10
-1.0000007629
 20
10.26
  0
SEQEND
  8
0
  0
POLYLINE
  8
0
 62
0
 70
1
 66
1
 10
0.0
 20
0.0
 30
0.0
  0
VERTEX
  8
0
 10
-0.97000038147
 20
10.26
  0
VERTEX
  8
0
 10
-1.0000007629
 20
10.26
  0
VERTEX
  8
0
 10
-1.0000007629
 20
10.26
  0
VERTEX
  8
0
 10
-8.9
 20
10.26
  0
VERTEX
  8
0
 10
-8.9
 20
10.26
  0
VERTEX
  8
0
 10
-0.97000038147
 20
10.26
  0
SEQEND
  8
0
  0
POLYLINE
  8
0
 62
0
 70
1
 66
1
 10
0.0
 20
0.0
 30
0.0
  0
VERTEX
  8
0
 10
-0.97000038147
 20
13.26
 42
0.333398546601
  0
VERTEX
  8
0
 10
-0.97000038147
 20
10.26
  0
VERTEX
  8
0
 10
-0.97000038147
 20
10.26
 42
0.333354169825
  0
VERTEX
  8
0
 10
-0.97000038147
 20
13.26
  0
SEQEND
  8
0
  0
POLYLINE
  8
0
 62
0
 70
1
 66
1
 10
0.0
 20
0.0
 30
0.0
  0
VERTEX
  8
0
 10
-0.97000038147
 20
13.26
 42
0.333354169825
  0
VERTEX
  8
0
 10
-0.97000038147
 20
10.26
  0
VERTEX
  8
0
 10
-8.9
 20
10.26
 42
0.333354169825
  0
VERTEX
  8
0
 10
-8.9
 20
13.26
  0
SEQEND
  8
0
  0
POLYLINE
  8
0
 62
0
 70
1
 66
1
 10
0.0
 20
0.0
 30
0.0
  0
VERTEX
  8
0
 10
-8.9
 20
13.26
  0
VERTEX
  8
0
 10
-8.9
 20
13.26
 42
0.143990508663
  0
VERTEX
  8
0
 10
-8.9
 20
11.9435463338
  0
VERTEX
  8
0
 10
-8.9
 20
11.5364536662
 42
0.138890243296
  0
VERTEX
  8
0
 10
-8.9
 20
10.26
  0
VERTEX
  8
0
 10
-8.9
 20
10.26
 42
0.333354169825
  0
SEQEND
  8
0
  0
POLYLINE
  8
0
 62
0
 70
1
 66
1
 10
0.0
 20
0.0
 30
0.0
  0
VERTEX
  8
0
 10
-1.0000007629
 20
11.9435463338
 42
0.143990508663
  0
VERTEX
  8
0
 10
-1.0000007629
 20
13.26
  0
VERTEX
  8
0
 10
-8.9
 20
13.26
 42
0.143990508663
  0
VERTEX
  8
0
 10
-8.9
 20
11.9435463338
  0
SEQEND
  8
0
  0
POLYLINE
  8
0
 62
0
 70
1
 66
1
 10
0.0
 20
0.0
 30
0.0
  0
VERTEX
  8
0
 10
-1.0000007629
 20
10.26
 42
0.138890243296
  0
VERTEX
  8
0
 10
-1.0000007629
 20
11.5364536662
  0
VERTEX
  8
0
 10
-8.9
 20
11.5364536662
 42
0.138890243296
  0
VERTEX
  8
0
 10
-8.9
 20
10.26
  0
SEQEND
  8
0
  0
POLYLINE
  8
0
 62
0
 70
1
 66
1
 10
0.0
 20
0.0
 30
0.0
  0
VERTEX
  8
0
 10
-1.0000007629
 20
11.9435463338
  0
VERTEX
  8
0
 10
-8.9
 20
11.9435463338
  0
VERTEX
  8
0
 10
-8.9
 20
11.5364536662
  0
VERTEX
  8
0
 10
-1.0000007629
 20
11.5364536662
  0
SEQEND
  8
0
  0
POLYLINE
  8
0
 62
0
 70
1
 66
1
 10
0.0
 20
0.0
 30
0.0
  0
VERTEX
  8
0
 10
27.5299996185
 20
13.26
 42
0.333354169825
  0
VERTEX
  8
0
 10
27.5299996185
 20
10.26
  0
VERTEX
  8
0
 10
19.6
 20
10.26
 42
0.333354169825
  0
VERTEX
  8
0
 10
19.6
 20
13.26
  0
SEQEND
  8
0
  0
POLYLINE
  8
0
 62
0
 70
1
 66
1
 10
0.0
 20
0.0
 30
0.0
  0
VERTEX
  8
0
 10
27.5299996185
 20
10.26
  0
VERTEX
  8
0
 10
27.5299996185
 20
10.26
 42
0.333354169825
  0
VERTEX
  8
0
 10
27.5299996185
 20
13.26
  0
VERTEX
  8
0
 10
27.5299996185
 20
13.26
 42
0.143990508663
  0
VERTEX
  8
0
 10
27.5299996185
 20
11.9435463338
  0
VERTEX
  8
0
 10
27.5299996185
 20
11.5364536662
 42
0.138890243296
  0
SEQEND
  8
0
  0
POLYLINE
  8
0
 62
0
 70
1
 66
1
 10
0.0
 20
0.0
 30
0.0
  0
VERTEX
  8
0
 10
27.5299996185
 20
10.26
  0
VERTEX
  8
0
 10
19.6
 20
10.26
  0
VERTEX
  8
0
 10
19.6
 20
10.26
  0
VERTEX
  8
0
 10
27.5299996185
 20
10.26
  0
SEQEND
  8
0
  0
POLYLINE
  8
0
 62
0
 70
1
 66
1
 10
0.0
 20
0.0
 30
0.0
  0
VERTEX
  8
0
 10
19.6
 20
13.26
  0
VERTEX
  8
0
 10
19.6
 20
13.26
 42
0.143990508663
  0
VERTEX
  8
0
 10
19.6
 20
11.9435463338
  0
VERTEX
  8
0
 10
19.6
 20
11.5364536662
 42
0.138890243296
  0
VERTEX
  8
0
 10
19.6
 20
10.26
  0
VERTEX
  8
0
 10
19.6
 20
10.26
 42
0.333354169825
  0
SEQEND
  8
0
  0
POLYLINE
  8
0
 62
0
 70
1
 66
1
 10
0.0
 20
0.0
 30
0.0
  0
VERTEX
  8
0
 10
27.5299996185
 20
13.26
  0
VERTEX
  8
0
 10
19.6
 20
13.26
  0
VERTEX
  8
0
 10
19.6
 20
13.26
  0
VERTEX
  8
0
 10
27.5299996185
 20
13.26
  0
SEQEND
  8
0
  0
POLYLINE
  8
0
 62
0
 70
1
 66
1
 10
0.0
 20
0.0
 30
0.0
  0
VERTEX
  8
0
 10
19.6
 20
13.26
 42
0.143990508663
  0
VERTEX
  8
0
 10
19.6
 20
11.9435463338
  0
VERTEX
  8
0
 10
27.5299996185
 20
11.9435463338
 42
0.143990508663
  0
VERTEX
  8
0
 10
27.5299996185
 20
13.26
  0
SEQEND
  8
0
  0
POLYLINE
  8
0
 62
0
 70
1
 66
1
 10
0.0
 20
0.0
 30
0.0
  0
VERTEX
  8
0
 10
27.5299996185
 20
11.9435463338
  0
VERTEX
  8
0
 10
19.6
 20
11.9435463338
  0
VERTEX
  8
0
 10
19.6
 20
11.5364536662
  0
VERTEX
  8
0
 10
27.5299996185
 20
11.5364536662
  0
SEQEND
  8
0
  0
POLYLINE
  8
0
 62
0
 70
1
 66
1
 10
0.0
 20
0.0
 30
0.0
  0
VERTEX
  8
0
 10
27.5299996185
 20
10.26
  0
VERTEX
  8
0
 10
19.6
 20
10.26
 42
0.138890243296
  0
VERTEX
  8
0
 10
19.6
 20
11.5364536662
  0
VERTEX
  8
0
 10
27.5299996185
 20
11.5364536662
 42
0.138890243296
  0
SEQEND
  8
0
  0
ENDBLK
  0
BLOCK
  8
0
  2
CUT008
 70
0
 10
0.0
 20
0.0
 30
0.0
  3
CUT008
  0
POLYLINE
  8
0
 62
0
 70
0
 66
1
 10
0.0
 20
0.0
 30
0.0
  0
VERTEX
  8
0
 10
18.0
 20
36.3985157013
  0
VERTEX
  8
0
 10
19.0
 20
36.3985157013
  0
VERTEX
  8
0
 10
19.0
 20
36.3985157013
  0
SEQEND
  8
0
  0
CIRCLE
  8
0
 62
0
 10
18.0
 20
34.3985157013
 30
16.3437271118
 40
2.0
  0
POLYLINE
  8
0
 62
0
 70
1
 66
1
 10
0.0
 20
0.0
 30
0.0
  0
VERTEX
  8
0
 10
19.0
 20
33.8450961113
  0
VERTEX
  8
0
 10
19.0
 20
35.0074367523
  0
VERTEX
  8
0
 10
19.0
 20
35.0074367523
  0
VERTEX
  8
0
 10
19.0
 20
35.6343171597
  0
VERTEX
  8
0
 10
19.0
 20
35.6343171597
  0
VERTEX
  8
0
 10
19.0
 20
35.0074367523
  0
VERTEX
  8
0
 10
19.0
 20
35.0074367523
  0
VERTEX
  8
0
 10
19.0
 20
33.8450961113
  0
VERTEX
  8
0
 10
19.0
 20
33.8450961113
  0
VERTEX
  8
0
 10
19.0
 20
33.1006755829
  0
VERTEX
  8
0
 10
19.0
 20
33.1006755829
  0
VERTEX
  8
0
 10
19.0
 20
33.8450961113
  0
SEQEND
  8
0
  0
CIRCLE
  8
0
 62
0
 10
19.0
 20
34.3985157013
 30
16.3437271118
 40
2.0
  0
POLYLINE
  8
0
 62
0
 70
1
 66
1
 10
0.0
 20
0.0
 30
0.0
  0
VERTEX
  8
0
 10
18.8
 20
33.8450961113
  0
VERTEX
  8
0
 10
19.0
 20
33.8450961113
  0
VERTEX
  8
0
 10
19.0
 20
35.0074367523
  0
VERTEX
  8
0
 10
18.8
 20
35.0074367523
  0
SEQEND
  8
0
  0
POLYLINE
  8
0
 62
0
 70
1
 66
1
 10
0.0
 20
0.0
 30
0.0
  0
VERTEX
  8
0
 10
18.8
 20
35.0074367523
  0
VERTEX
  8
0
 10
19.0
 20
35.0074367523
  0
VERTEX
  8
0
 10
19.0
 20
35.0074367523
  0
VERTEX
  8
0
 10
18.8
 20
35.0074367523
  0
SEQEND
  8
0
  0
POLYLINE
  8
0
 62
0
 70
1
 66
1
 10
0.0
 20
0.0
 30
0.0
  0
VERTEX
  8
0
 10
19.0
 20
35.0074367523
  0
VERTEX
  8
0
 10
18.8
 20
35.0074367523
  0
VERTEX
  8
0
 10
18.8
 20
35.6343171597
  0
VERTEX
  8
0
 10
19.0
 20
35.6343171597
  0
SEQEND
  8
0
  0
POLYLINE
  8
0
 62
0
 70
1
 66
1
 10
0.0
 20
0.0
 30
0.0
  0
VERTEX
  8
0
 10
18.8
 20
35.6343171597
  0
VERTEX
  8
0
 10
19.0
 20
35.6343171597
  0
VERTEX
  8
0
 10
19.0
 20
35.6343171597
  0
VERTEX
  8
0
 10
18.8
 20
35.6343171597
  0
SEQEND
  8
0
  0
POLYLINE
  8
0
 62
0
 70
1
 66
1
 10
0.0
 20
0.0
 30
0.0
  0
VERTEX
  8
0
 10
18.8
 20
35.0074367523
  0
VERTEX
  8
0
 10
19.0
 20
35.0074367523
  0
VERTEX
  8
0
 10
19.0
 20
35.6343171597
  0
VERTEX
  8
0
 10
18.8
 20
35.6343171597
  0
SEQEND
  8
0
  0
POLYLINE
  8
0
 62
0
 70
1
 66
1
 10
0.0
 20
0.0
 30
0.0
  0
VERTEX
  8
0
 10
18.8
 20
35.0074367523
  0
VERTEX
  8
0
 10
18.8
 20
35.0074367523
  0
VERTEX
  8
0
 10
19.0
 20
35.0074367523
  0
VERTEX
  8
0
 10
19.0
 20
35.0074367523
  0
SEQEND
  8
0
  0
POLYLINE
  8
0
 62
0
 70
1
 66
1
 10
0.0
 20
0.0
 30
0.0
  0
VERTEX
  8
0
 10
18.8
 20
35.0074367523
  0
VERTEX
  8
0
 10
19.0
 20
35.0074367523
  0
VERTEX
  8
0
 10
19.0
 20
33.8450961113
  0
VERTEX
  8
0
 10
18.8
 20
33.8450961113
  0
SEQEND
  8
0
  0
POLYLINE
  8
0
 62
0
 70
1
 66
1
 10
0.0
 20
0.0
 30
0.0
  0
VERTEX
  8
0
 10
18.8
 20
33.8450961113
  0
VERTEX
  8
0
 10
19.0
 20
33.8450961113
  0
VERTEX
  8
0
 10
19.0
 20
33.8450961113
  0
VERTEX
  8
0
 10
18.8
 20
33.8450961113
  0
SEQEND
  8
0
  0
POLYLINE
  8
0
 62
0
 70
1
 66
1
 10
0.0
 20
0.0
 30
0.0
  0
VERTEX
  8
0
 10
18.8
 20
33.8450961113
  0
VERTEX
  8
0
 10
18.8
 20
33.1006755829
  0
VERTEX
  8
0
 10
19.0
 20
33.1006755829
  0
VERTEX
  8
0
 10
19.0
 20
33.8450961113
  0
SEQEND
  8
0
  0
POLYLINE
  8
0
 62
0
 70
1
 66
1
 10
0.0
 20
0.0
 30
0.0
  0
VERTEX
  8
0
 10
18.8
 20
33.1006755829
  0
VERTEX
  8
0
 10
19.0
 20
33.1006755829
  0
VERTEX
  8
0
 10
19.0
 20
33.1006755829
  0
VERTEX
  8
0
 10
18.8
 20
33.1006755829
  0
SEQEND
  8
0
  0
POLYLINE
  8
0
 62
0
 70
1
 66
1
 10
0.0
 20
0.0
 30
0.0
  0
VERTEX
  8
0
 10
19.0
 20
33.1006755829
  0
VERTEX
  8
0
 10
19.0
 20
33.8450961113
  0
VERTEX
  8
0
 10
18.8
 20
33.8450961113
  0
VERTEX
  8
0
 10
18.8
 20
33.1006755829
  0
SEQEND
  8
0
  0
POLYLINE
  8
0
 62
0
 70
1
 66
1
 10
0.0
 20
0.0
 30
0.0
  0
VERTEX
  8
0
 10
18.8
 20
33.8450961113
  0
VERTEX
  8
0
 10
18.8
 20
33.8450961113
  0
VERTEX
  8
0
 10
19.0
 20
33.8450961113
  0
VERTEX
  8
0
 10
19.0
 20
33.8450961113
  0
SEQEND
  8
0
  0
POLYLINE
  8
0
 62
0
 70
1
 66
1
 10
0.0
 20
0.0
 30
0.0
  0
VERTEX
  8
0
 10
18.8
 20
33.8450961113
  0
VERTEX
  8
0
 10
18.8
 20
35.0074367523
  0
VERTEX
  8
0
 10
18.8
 20
35.0074367523
  0
VERTEX
  8
0
 10
18.8
 20
33.8450961113
  0
SEQEND
  8
0
  0
POLYLINE
  8
0
 62
0
 70
1
 66
1
 10
0.0
 20
0.0
 30
0.0
  0
VERTEX
  8
0
 10
18.8
 20
35.0074367523
  0
VERTEX
  8
0
 10
18.8
 20
35.6343171597
  0
VERTEX
  8
0
 10
18.8
 20
35.6343171597
  0
VERTEX
  8
0
 10
18.8
 20
35.0074367523
  0
SEQEND
  8
0
  0
POLYLINE
  8
0
 62
0
 70
1
 66
1
 10
0.0
 20
0.0
 30
0.0
  0
VERTEX
  8
0
 10
18.8
 20
35.0074367523
  0
VERTEX
  8
0
 10
18.8
 20
33.8450961113
  0
VERTEX
  8
0
 10
18.8
 20
33.8450961113
  0
VERTEX
  8
0
 10
18.8
 20
35.0074367523
  0
SEQEND
  8
0
  0
POLYLINE
  8
0
 62
0
 70
1
 66
1
 10
0.0
 20
0.0
 30
0.0
  0
VERTEX
  8
0
 10
18.8
 20
33.1006755829
  0
VERTEX
  8
0
 10
18.8
 20
33.8450961113
  0
VERTEX
  8
0
 10
18.8
 20
33.8450961113
  0
VERTEX
  8
0
 10
18.8
 20
33.1006755829
  0
SEQEND
  8
0
  0
POLYLINE
  8
0
 62
0
 70
1
 66
1
 10
0.0
 20
0.0
 30
0.0
  0
VERTEX
  8
0
 10
18.8
 20
33.8450961113
  0
VERTEX
  8
0
 10
18.8
 20
35.0074367523
  0
VERTEX
  8
0
 10
18.8
 20
35.0074367523
  0
VERTEX
  8
0
 10
18.8
 20
33.8450961113
  0
SEQEND
  8
0
  0
ENDBLK
  0
BLOCK
  8
0
  2
CUT006
 70
0
 10
0.0
 20
0.0
 30
0.0
  3
CUT006
  0
POLYLINE
  8
0
 62
0
 70
1
 66
1
 10
0.0
 20
0.0
 30
0.0
  0
VERTEX
  8
0
 10
0.0
 20
-4.4408920985e-16
  0
VERTEX
  8
0
 10
0.0
 20
-4.4408920985e-16
  0
VERTEX
  8
0
 10
18.7999992371
 20
-4.4408920985e-16
  0
VERTEX
  8
0
 10
18.7999992371
 20
-4.4408920985e-16
  0
SEQEND
  8
0
  0
POLYLINE
  8
0
 62
0
 70
1
 66
1
 10
0.0
 20
0.0
 30
0.0
  0
VERTEX
  8
0
 10
0.0
 20
35.0964868164
 42
0.414213562373
  0
VERTEX
  8
0
 10
0.0
 20
36.3964867687
 42
0.414213562373
  0
SEQEND
  8
0
  0
POLYLINE
  8
0
 62
0
 70
1
 66
1
 10
0.0
 20
0.0
 30
0.0
  0
VERTEX
  8
0
 10
0.0
 20
31.4570704285
 42
0.414213562373
  0
VERTEX
  8
0
 10
0.0
 20
33.4570704285
 42
0.414213562373
  0
SEQEND
  8
0
  0
POLYLINE
  8
0
 62
0
 70
1
 66
1
 10
0.0
 20
0.0
 30
0.0
  0
VERTEX
  8
0
 10
0.0
 20
31.373792038
 42
0.414213562373
  0
VERTEX
  8
0
 10
0.0
 20
33.373792038
 42
0.414213562373
  0
SEQEND
  8
0
  0
POLYLINE
  8
0
 62
0
 70
1
 66
1
 10
0.0
 20
0.0
 30
0.0
  0
VERTEX
  8
0
 10
0.0
 20
35.0965207947
 42
0.414213562373
  0
VERTEX
  8
0
 10
0.0
 20
36.396520747
 42
0.414213562373
  0
SEQEND
  8
0
  0
POLYLINE
  8
0
 62
0
 70
1
 66
1
 10
0.0
 20
0.0
 30
0.0
  0
VERTEX
  8
0
 10
0.0
 20
-4.4408920985e-16
  0
VERTEX
  8
0
 10
0.0
 20
-4.4408920985e-16
 42
0.414213562373
  0
VERTEX
  8
0
 10
0.0
 20
3.0
  0
VERTEX
  8
0
 10
0.0
 20
37.0
  0
VERTEX
  8
0
 10
0.0
 20
37.0
  0
VERTEX
  8
0
 10
0.0
 20
3.0
 42
0.414213562373
  0
SEQEND
  8
0
  0
POLYLINE
  8
0
 62
0
 70
1
 66
1
 10
0.0
 20
0.0
 30
0.0
  0
VERTEX
  8
0
 10
0.0
 20
-4.4408920985e-16
 42
0.414213562373
  0
VERTEX
  8
0
 10
0.0
 20
3.0
  0
VERTEX
  8
0
 10
18.7999992371
 20
3.0
 42
0.414213562373
  0
VERTEX
  8
0
 10
18.7999992371
 20
-4.4408920985e-16
  0
SEQEND
  8
0
  0
POLYLINE
  8
0
 62
0
 70
1
 66
1
 10
0.0
 20
0.0
 30
0.0
  0
VERTEX
  8
0
 10
0.0
 20
-4.4408920985e-16
 42
0.414213562373
  0
VERTEX
  8
0
 10
0.0
 20
3.0
  0
VERTEX
  8
0
 10
18.7999992371
 20
3.0
 42
0.414213562373
  0
VERTEX
  8
0
 10
18.7999992371
 20
-4.4408920985e-16
  0
SEQEND
  8
0
  0
POLYLINE
  8
0
 62
0
 70
1
 66
1
 10
0.0
 20
0.0
 30
0.0
  0
VERTEX
  8
0
 10
18.7999992371
 20
36.3964867687
 42
0.414213562373
  0
VERTEX
  8
0
 10
18.7999992371
 20
35.0964868164
 42
0.414213562373
  0
SEQEND
  8
0
  0
POLYLINE
  8
0
 62
0
 70
1
 66
1
 10
0.0
 20
0.0
 30
0.0
  0
VERTEX
  8
0
 10
18.7999992371
 20
33.4570704285
 42
0.414213562373
  0
VERTEX
  8
0
 10
18.7999992371
 20
31.4570704285
 42
0.414213562373
  0
SEQEND
  8
0
  0
POLYLINE
  8
0
 62
0
 70
1
 66
1
 10
0.0
 20
0.0
 30
0.0
  0
VERTEX
  8
0
 10
18.7999992371
 20
33.373792038
 42
0.414213562373
  0
VERTEX
  8
0
 10
18.7999992371
 20
31.373792038
 42
0.414213562373
  0
SEQEND
  8
0
  0
POLYLINE
  8
0
 62
0
 70
1
 66
1
 10
0.0
 20
0.0
 30
0.0
  0
VERTEX
  8
0
 10
18.7999992371
 20
36.396520747
 42
0.414213562373
  0
VERTEX
  8
0
 10
18.7999992371
 20
35.0965207947
 42
0.414213562373
  0
SEQEND
  8
0
  0
POLYLINE
  8
0
 62
0
 70
1
 66
1
 10
0.0
 20
0.0
 30
0.0
  0
VERTEX
  8
0
 10
18.7999992371
 20
-4.4408920985e-16
  0
VERTEX
  8
0
 10
18.7999992371
 20
-4.4408920985e-16
 42
0.414213562373
  0
VERTEX
  8
0
 10
18.7999992371
 20
3.0
  0
VERTEX
  8
0
 10
18.7999992371
 20
37.0
  0
VERTEX
  8
0
 10
18.7999992371
 20
37.0
  0
VERTEX
  8
0
 10
18.7999992371
 20
3.0
 42
0.414213562373
  0
SEQEND
  8
0
  0
POLYLINE
  8
0
 62
0
 70
0
 66
1
 10
0.0
 20
0.0
 30
0.0
  0
VERTEX
  8
0
 10
0.0
 20
36.3964867687
  0
VERTEX
  8
0
 10
18.7999992371
 20
36.3964867687
 42
0.414213562373
  0
VERTEX
  8
0
 10
18.7999992371
 20
35.0964868164
 42
0.414213562373
  0
VERTEX
  8
0
 10
18.7999992371
 20
36.3964867687
  0
SEQEND
  8
0
  0
POLYLINE
  8
0
 62
0
 70
0
 66
1
 10
0.0
 20
0.0
 30
0.0
  0
VERTEX
  8
0
 10
0.0
 20
33.4570704285
  0
VERTEX
  8
0
 10
18.7999992371
 20
33.4570704285
 42
0.414213562373
  0
VERTEX
  8
0
 10
18.7999992371
 20
31.4570704285
 42
0.414213562373
  0
VERTEX
  8
0
 10
18.7999992371
 20
33.4570704285
  0
SEQEND
  8
0
  0
POLYLINE
  8
0
 62
0
 70
0
 66
1
 10
0.0
 20
0.0
 30
0.0
  0
VERTEX
  8
0
 10
0.0
 20
33.373792038
  0
VERTEX
  8
0
 10
18.7999992371
 20
33.373792038
 42
0.414213562373
  0
VERTEX
  8
0
 10
18.7999992371
 20
31.373792038
 42
0.414213562373
  0
VERTEX
  8
0
 10
18.7999992371
 20
33.373792038
  0
SEQEND
  8
0
  0
POLYLINE
  8
0
 62
0
 70
0
 66
1
 10
0.0
 20
0.0
 30
0.0
  0
VERTEX
  8
0
 10
0.0
 20
36.396520747
  0
VERTEX
  8
0
 10
18.7999992371
 20
36.396520747
 42
0.414213562373
  0
VERTEX
  8
0
 10
18.7999992371
 20
35.0965207947
 42
0.414213562373
  0
VERTEX
  8
0
 10
18.7999992371
 20
36.396520747
  0
SEQEND
  8
0
  0
POLYLINE
  8
0
 62
0
 70
1
 66
1
 10
0.0
 20
0.0
 30
0.0
  0
VERTEX
  8
0
 10
18.7999992371
 20
3.0
  0
VERTEX
  8
0
 10
18.7999992371
 20
37.0
  0
VERTEX
  8
0
 10
0.0
 20
37.0
  0
VERTEX
  8
0
 10
0.0
 20
3.0
  0
SEQEND
  8
0
  0
POLYLINE
  8
0
 62
0
 70
1
 66
1
 10
0.0
 20
0.0
 30
0.0
  0
VERTEX
  8
0
 10
18.7999992371
 20
3.0
  0
VERTEX
  8
0
 10
18.7999992371
 20
37.0
  0
VERTEX
  8
0
 10
0.0
 20
37.0
  0
VERTEX
  8
0
 10
0.0
 20
3.0
  0
SEQEND
  8
0
  0
POLYLINE
  8
0
 62
0
 70
1
 66
1
 10
0.0
 20
0.0
 30
0.0
  0
VERTEX
  8
0
 10
18.7999992371
 20
37.0
  0
VERTEX
  8
0
 10
18.7999992371
 20
37.0
  0
VERTEX
  8
0
 10
0.0
 20
37.0
  0
VERTEX
  8
0
 10
0.0
 20
37.0
  0
SEQEND
  8
0
  0
ENDBLK
  0
BLOCK
  8
0
  2
FUSION001
 70
0
 10
0.0
 20
0.0
 30
0.0
  3
FUSION001
  0
POLYLINE
  8
0
 62
0
 70
1
 66
1
 10
0.0
 20
0.0
 30
0.0
  0
VERTEX
  8
0
 10
19.2111988068
 20
43.4554194641
  0
VERTEX
  8
0
 10
19.2111988068
 20
43.4554194641
  0
VERTEX
  8
0
 10
19.8724021912
 20
42.9705371094
  0
VERTEX
  8
0
 10
19.8724021912
 20
42.9705371094
  0
SEQEND
  8
0
  0
POLYLINE
  8
0
 62
0
 70
1
 66
1
 10
0.0
 20
0.0
 30
0.0
  0
VERTEX
  8
0
 10
18.96205
 20
43.4554194641
  0
VERTEX
  8
0
 10
18.1532745361
 20
43.4554194641
  0
VERTEX
  8
0
 10
18.1532745361
 20
43.4554194641
  0
VERTEX
  8
0
 10
19.2111988068
 20
43.4554194641
  0
VERTEX
  8
0
 10
19.2111988068
 20
43.4554194641
  0
VERTEX
  8
0
 10
18.96205
 20
43.4554194641
  0
SEQEND
  8
0
  0
POLYLINE
  8
0
 62
0
 70
1
 66
1
 10
0.0
 20
0.0
 30
0.0
  0
VERTEX
  8
0
 10
19.8724021912
 20
42.9705371094
  0
VERTEX
  8
0
 10
19.8724021912
 20
42.9705371094
  0
VERTEX
  8
0
 10
19.9164810181
 20
42.0889338684
  0
VERTEX
  8
0
 10
19.9164810181
 20
42.0889338684
  0
SEQEND
  8
0
  0
POLYLINE
  8
0
 62
0
 70
1
 66
1
 10
0.0
 20
0.0
 30
0.0
  0
VERTEX
  8
0
 10
18.1091938019
 20
44.0284632874
  0
VERTEX
  8
0
 10
18.1532745361
 20
43.4554194641
  0
VERTEX
  8
0
 10
19.2111988068
 20
43.4554194641
  0
VERTEX
  8
0
 10
19.8724021912
 20
42.9705371094
  0
VERTEX
  8
0
 10
19.9164810181
 20
42.0889338684
  0
VERTEX
  8
0
 10
20.5336074829
 20
42.0889338684
  0
VERTEX
  8
0
 10
20.5336074829
 20
43.4554194641
  0
VERTEX
  8
0
 10
19.6520004272
 20
44.0725421143
  0
SEQEND
  8
0
  0
POLYLINE
  8
0
 62
0
 70
1
 66
1
 10
0.0
 20
0.0
 30
0.0
  0
VERTEX
  8
0
 10
18.113006399
 20
43.9789000191
  0
VERTEX
  8
0
 10
18.96205
 20
43.9789000191
  0
VERTEX
  8
0
 10
18.96205
 20
43.4554194641
  0
VERTEX
  8
0
 10
19.2111988068
 20
43.4554194641
  0
VERTEX
  8
0
 10
19.8724021912
 20
42.9705371094
  0
VERTEX
  8
0
 10
19.9164810181
 20
42.0889338684
  0
VERTEX
  8
0
 10
20.5336074829
 20
42.0889338684
  0
VERTEX
  8
0
 10
20.5336074829
 20
43.4554194641
  0
VERTEX
  8
0
 10
19.6520004272
 20
44.0725421143
  0
VERTEX
  8
0
 10
18.1091938019
 20
44.0284632874
  0
SEQEND
  8
0
  0
POLYLINE
  8
0
 62
0
 70
1
 66
1
 10
0.0
 20
0.0
 30
0.0
  0
VERTEX
  8
0
 10
18.1532745361
 20
43.4554194641
  0
VERTEX
  8
0
 10
18.113006399
 20
43.9789000191
  0
VERTEX
  8
0
 10
15.96205
 20
43.9789000191
  0
VERTEX
  8
0
 10
15.96205
 20
40.9989
  0
VERTEX
  8
0
 10
18.96205
 20
40.9989
  0
VERTEX
  8
0
 10
18.96205
 20
43.4554194641
  0
SEQEND
  8
0
  0
POLYLINE
  8
0
 62
0
 70
1
 66
1
 10
0.0
 20
0.0
 30
0.0
  0
VERTEX
  8
0
 10
18.113006399
 20
43.9789000191
  0
VERTEX
  8
0
 10
18.113006399
 20
43.9789000191
  0
VERTEX
  8
0
 10
18.1091938019
 20
44.0284632874
  0
VERTEX
  8
0
 10
18.1091938019
 20
44.0284632874
  0
VERTEX
  8
0
 10
18.1532745361
 20
43.4554194641
  0
VERTEX
  8
0
 10
18.1532745361
 20
43.4554194641
  0
SEQEND
  8
0
  0
POLYLINE
  8
0
 62
0
 70
1
 66
1
 10
0.0
 20
0.0
 30
0.0
  0
VERTEX
  8
0
 10
18.96205
 20
43.4554194641
  0
VERTEX
  8
0
 10
18.96205
 20
43.4554194641
  0
VERTEX
  8
0
 10
18.96205
 20
40.9989
  0
VERTEX
  8
0
 10
18.96205
 20
40.9989
  0
VERTEX
  8
0
 10
18.96205
 20
43.9789000191
  0
VERTEX
  8
0
 10
18.96205
 20
43.9789000191
  0
SEQEND
  8
0
  0
POLYLINE
  8
0
 62
0
 70
1
 66
1
 10
0.0
 20
0.0
 30
0.0
  0
VERTEX
  8
0
 10
19.9164810181
 20
42.0889338684
  0
VERTEX
  8
0
 10
19.9164810181
 20
42.0889338684
  0
VERTEX
  8
0
 10
20.5336074829
 20
42.0889338684
  0
VERTEX
  8
0
 10
20.5336074829
 20
42.0889338684
  0
SEQEND
  8
0
  0
POLYLINE
  8
0
 62
0
 70
1
 66
1
 10
0.0
 20
0.0
 30
0.0
  0
VERTEX
  8
0
 10
20.5336074829
 20
42.0889338684
  0
VERTEX
  8
0
 10
20.5336074829
 20
42.0889338684
  0
VERTEX
  8
0
 10
20.5336074829
 20
43.4554194641
  0
VERTEX
  8
0
 10
20.5336074829
 20
43.4554194641
  0
SEQEND
  8
0
  0
POLYLINE
  8
0
 62
0
 70
1
 66
1
 10
0.0
 20
0.0
 30
0.0
  0
VERTEX
  8
0
 10
20.5336074829
 20
43.4554194641
  0
VERTEX
  8
0
 10
20.5336074829
 20
43.4554194641
  0
VERTEX
  8
0
 10
19.6520004272
 20
44.0725421143
  0
VERTEX
  8
0
 10
19.6520004272
 20
44.0725421143
  0
SEQEND
  8
0
  0
POLYLINE
  8
0
 62
0
 70
1
 66
1
 10
0.0
 20
0.0
 30
0.0
  0
VERTEX
  8
0
 10
19.6520004272
 20
44.0725421143
  0
VERTEX
  8
0
 10
19.6520004272
 20
44.0725421143
  0
VERTEX
  8
0
 10
18.1091938019
 20
44.0284632874
  0
VERTEX
  8
0
 10
18.1091938019
 20
44.0284632874
  0
SEQEND
  8
0
  0
POLYLINE
  8
0
 62
0
 70
1
 66
1
 10
0.0
 20
0.0
 30
0.0
  0
VERTEX
  8
0
 10
18.113006399
 20
43.9789000191
  0
VERTEX
  8
0
 10
18.113006399
 20
43.9789000191
  0
VERTEX
  8
0
 10
18.96205
 20
43.9789000191
  0
VERTEX
  8
0
 10
18.96205
 20
43.9789000191
  0
VERTEX
  8
0
 10
15.96205
 20
43.9789000191
  0
VERTEX
  8
0
 10
15.96205
 20
43.9789000191
  0
SEQEND
  8
0
  0
POLYLINE
  8
0
 62
0
 70
1
 66
1
 10
0.0
 20
0.0
 30
0.0
  0
VERTEX
  8
0
 10
15.96205
 20
40.9989
  0
VERTEX
  8
0
 10
15.96205
 20
43.9789000191
  0
VERTEX
  8
0
 10
15.96205
 20
43.9789000191
  0
VERTEX
  8
0
 10
15.96205
 20
40.9989
  0
SEQEND
  8
0
  0
POLYLINE
  8
0
 62
0
 70
1
 66
1
 10
0.0
 20
0.0
 30
0.0
  0
VERTEX
  8
0
 10
15.96205
 20
40.9989
  0
VERTEX
  8
0
 10
18.96205
 20
40.9989
  0
VERTEX
  8
0
 10
18.96205
 20
40.9989
  0
VERTEX
  8
0
 10
15.96205
 20
40.9989
  0
SEQEND
  8
0
  0
POLYLINE
  8
0
 62
0
 70
1
 66
1
 10
0.0
 20
0.0
 30
0.0
  0
VERTEX
  8
0
 10
15.96205
 20
40.9989
  0
VERTEX
  8
0
 10
18.96205
 20
40.9989
  0
VERTEX
  8
0
 10
18.96205
 20
43.9789000191
  0
VERTEX
  8
0
 10
15.96205
 20
43.9789000191
  0
SEQEND
  8
0
  0
ENDBLK
  0
BLOCK
  8
0
  2
CUT001
 70
0
 10
0.0
 20
0.0
 30
0.0
  3
CUT001
  0
POLYLINE
  8
0
 62
0
 70
1
 66
1
 10
0.0
 20
0.0
 30
0.0
  0
VERTEX
  8
0
 10
7.59052
 20
-5.0003773499
  0
VERTEX
  8
0
 10
10.59052
 20
-5.0003773499
  0
VERTEX
  8
0
 10
10.59052
 20
-0.000377349899999
  0
VERTEX
  8
0
 10
7.59052
 20
-0.000377349899999
  0
SEQEND
  8
0
  0
POLYLINE
  8
0
 62
0
 70
1
 66
1
 10
0.0
 20
0.0
 30
0.0
  0
VERTEX
  8
0
 10
7.59052
 20
-5.0003773499
  0
VERTEX
  8
0
 10
10.59052
 20
-5.0003773499
  0
VERTEX
  8
0
 10
10.59052
 20
-5.0003773499
  0
VERTEX
  8
0
 10
7.59052
 20
-5.0003773499
  0
SEQEND
  8
0
  0
POLYLINE
  8
0
 62
0
 70
1
 66
1
 10
0.0
 20
0.0
 30
0.0
  0
VERTEX
  8
0
 10
7.59052
 20
-0.000377349899999
  0
VERTEX
  8
0
 10
10.59052
 20
-0.000377349899999
  0
VERTEX
  8
0
 10
10.59052
 20
-0.000377349899999
  0
VERTEX
  8
0
 10
7.59052
 20
-0.000377349899999
  0
SEQEND
  8
0
  0
POLYLINE
  8
0
 62
0
 70
1
 66
1
 10
0.0
 20
0.0
 30
0.0
  0
VERTEX
  8
0
 10
7.59052
 20
-1.0488316345
 42
0.414213562373
  0
VERTEX
  8
0
 10
7.59052
 20
-2.5488316345
 42
0.414213562373
  0
SEQEND
  8
0
  0
POLYLINE
  8
0
 62
0
 70
1
 66
1
 10
0.0
 20
0.0
 30
0.0
  0
VERTEX
  8
0
 10
7.59052
 20
-5.0003773499
  0
VERTEX
  8
0
 10
7.59052
 20
-0.000377349899999
  0
VERTEX
  8
0
 10
7.59052
 20
-0.000377349899999
  0
VERTEX
  8
0
 10
7.59052
 20
-5.0003773499
  0
SEQEND
  8
0
  0
POLYLINE
  8
0
 62
0
 70
1
 66
1
 10
0.0
 20
0.0
 30
0.0
  0
VERTEX
  8
0
 10
10.59052
 20
-1.0488316345
 42
0.414213562373
  0
VERTEX
  8
0
 10
10.59052
 20
-2.5488316345
 42
0.414213562373
  0
SEQEND
  8
0
  0
POLYLINE
  8
0
 62
0
 70
1
 66
1
 10
0.0
 20
0.0
 30
0.0
  0
VERTEX
  8
0
 10
10.59052
 20
-5.0003773499
  0
VERTEX
  8
0
 10
10.59052
 20
-0.000377349899999
  0
VERTEX
  8
0
 10
10.59052
 20
-0.000377349899999
  0
VERTEX
  8
0
 10
10.59052
 20
-5.0003773499
  0
SEQEND
  8
0
  0
POLYLINE
  8
0
 62
0
 70
1
 66
1
 10
0.0
 20
0.0
 30
0.0
  0
VERTEX
  8
0
 10
7.59052
 20
-0.000377349899999
  0
VERTEX
  8
0
 10
10.59052
 20
-0.000377349899999
  0
VERTEX
  8
0
 10
10.59052
 20
-5.0003773499
  0
VERTEX
  8
0
 10
7.59052
 20
-5.0003773499
  0
SEQEND
  8
0
  0
POLYLINE
  8
0
 62
0
 70
0
 66
1
 10
0.0
 20
0.0
 30
0.0
  0
VERTEX
  8
0
 10
7.59052
 20
-1.0488316345
  0
VERTEX
  8
0
 10
10.59052
 20
-1.0488316345
 42
0.414213562373
  0
VERTEX
  8
0
 10
10.59052
 20
-2.5488316345
 42
0.414213562373
  0
VERTEX
  8
0
 10
10.59052
 20
-1.0488316345
  0
SEQEND
  8
0
  0
ENDBLK
  0
BLOCK
  8
0
  2
CUT009
 70
0
 10
0.0
 20
0.0
 30
0.0
  3
CUT009
  0
POLYLINE
  8
0
 62
0
 70
0
 66
1
 10
0.0
 20
0.0
 30
0.0
  0
VERTEX
  8
0
 10
18.0
 20
36.3985157013
  0
VERTEX
  8
0
 10
19.0
 20
36.3985157013
  0
VERTEX
  8
0
 10
19.0
 20
36.3985157013
  0
SEQEND
  8
0
  0
CIRCLE
  8
0
 62
0
 10
18.0
 20
34.3985157013
 30
6.3437271118
 40
2.0
  0
POLYLINE
  8
0
 62
0
 70
1
 66
1
 10
0.0
 20
0.0
 30
0.0
  0
VERTEX
  8
0
 10
19.0
 20
33.8450961113
  0
VERTEX
  8
0
 10
19.0
 20
35.0074367523
  0
VERTEX
  8
0
 10
19.0
 20
35.0074367523
  0
VERTEX
  8
0
 10
19.0
 20
35.6343171597
  0
VERTEX
  8
0
 10
19.0
 20
35.6343171597
  0
VERTEX
  8
0
 10
19.0
 20
35.0074367523
  0
VERTEX
  8
0
 10
19.0
 20
35.0074367523
  0
VERTEX
  8
0
 10
19.0
 20
33.8450961113
  0
VERTEX
  8
0
 10
19.0
 20
33.8450961113
  0
VERTEX
  8
0
 10
19.0
 20
33.1006755829
  0
VERTEX
  8
0
 10
19.0
 20
33.1006755829
  0
VERTEX
  8
0
 10
19.0
 20
33.8450961113
  0
SEQEND
  8
0
  0
CIRCLE
  8
0
 62
0
 10
19.0
 20
34.3985157013
 30
6.3437271118
 40
2.0
  0
POLYLINE
  8
0
 62
0
 70
1
 66
1
 10
0.0
 20
0.0
 30
0.0
  0
VERTEX
  8
0
 10
18.8
 20
33.8450961113
  0
VERTEX
  8
0
 10
19.0
 20
33.8450961113
  0
VERTEX
  8
0
 10
19.0
 20
35.0074367523
  0
VERTEX
  8
0
 10
18.8
 20
35.0074367523
  0
SEQEND
  8
0
  0
POLYLINE
  8
0
 62
0
 70
1
 66
1
 10
0.0
 20
0.0
 30
0.0
  0
VERTEX
  8
0
 10
18.8
 20
35.0074367523
  0
VERTEX
  8
0
 10
19.0
 20
35.0074367523
  0
VERTEX
  8
0
 10
19.0
 20
35.0074367523
  0
VERTEX
  8
0
 10
18.8
 20
35.0074367523
  0
SEQEND
  8
0
  0
POLYLINE
  8
0
 62
0
 70
1
 66
1
 10
0.0
 20
0.0
 30
0.0
  0
VERTEX
  8
0
 10
19.0
 20
35.0074367523
  0
VERTEX
  8
0
 10
18.8
 20
35.0074367523
  0
VERTEX
  8
0
 10
18.8
 20
35.6343171597
  0
VERTEX
  8
0
 10
19.0
 20
35.6343171597
  0
SEQEND
  8
0
  0
POLYLINE
  8
0
 62
0
 70
1
 66
1
 10
0.0
 20
0.0
 30
0.0
  0
VERTEX
  8
0
 10
18.8
 20
35.6343171597
  0
VERTEX
  8
0
 10
19.0
 20
35.6343171597
  0
VERTEX
  8
0
 10
19.0
 20
35.6343171597
  0
VERTEX
  8
0
 10
18.8
 20
35.6343171597
  0
SEQEND
  8
0
  0
POLYLINE
  8
0
 62
0
 70
1
 66
1
 10
0.0
 20
0.0
 30
0.0
  0
VERTEX
  8
0
 10
18.8
 20
35.0074367523
  0
VERTEX
  8
0
 10
19.0
 20
35.0074367523
  0
VERTEX
  8
0
 10
19.0
 20
35.6343171597
  0
VERTEX
  8
0
 10
18.8
 20
35.6343171597
  0
SEQEND
  8
0
  0
POLYLINE
  8
0
 62
0
 70
1
 66
1
 10
0.0
 20
0.0
 30
0.0
  0
VERTEX
  8
0
 10
18.8
 20
35.0074367523
  0
VERTEX
  8
0
 10
18.8
 20
35.0074367523
  0
VERTEX
  8
0
 10
19.0
 20
35.0074367523
  0
VERTEX
  8
0
 10
19.0
 20
35.0074367523
  0
SEQEND
  8
0
  0
POLYLINE
  8
0
 62
0
 70
1
 66
1
 10
0.0
 20
0.0
 30
0.0
  0
VERTEX
  8
0
 10
18.8
 20
35.0074367523
  0
VERTEX
  8
0
 10
19.0
 20
35.0074367523
  0
VERTEX
  8
0
 10
19.0
 20
33.8450961113
  0
VERTEX
  8
0
 10
18.8
 20
33.8450961113
  0
SEQEND
  8
0
  0
POLYLINE
  8
0
 62
0
 70
1
 66
1
 10
0.0
 20
0.0
 30
0.0
  0
VERTEX
  8
0
 10
18.8
 20
33.8450961113
  0
VERTEX
  8
0
 10
19.0
 20
33.8450961113
  0
VERTEX
  8
0
 10
19.0
 20
33.8450961113
  0
VERTEX
  8
0
 10
18.8
 20
33.8450961113
  0
SEQEND
  8
0
  0
POLYLINE
  8
0
 62
0
 70
1
 66
1
 10
0.0
 20
0.0
 30
0.0
  0
VERTEX
  8
0
 10
18.8
 20
33.8450961113
  0
VERTEX
  8
0
 10
18.8
 20
33.1006755829
  0
VERTEX
  8
0
 10
19.0
 20
33.1006755829
  0
VERTEX
  8
0
 10
19.0
 20
33.8450961113
  0
SEQEND
  8
0
  0
POLYLINE
  8
0
 62
0
 70
1
 66
1
 10
0.0
 20
0.0
 30
0.0
  0
VERTEX
  8
0
 10
18.8
 20
33.1006755829
  0
VERTEX
  8
0
 10
19.0
 20
33.1006755829
  0
VERTEX
  8
0
 10
19.0
 20
33.1006755829
  0
VERTEX
  8
0
 10
18.8
 20
33.1006755829
  0
SEQEND
  8
0
  0
POLYLINE
  8
0
 62
0
 70
1
 66
1
 10
0.0
 20
0.0
 30
0.0
  0
VERTEX
  8
0
 10
19.0
 20
33.1006755829
  0
VERTEX
  8
0
 10
19.0
 20
33.8450961113
  0
VERTEX
  8
0
 10
18.8
 20
33.8450961113
  0
VERTEX
  8
0
 10
18.8
 20
33.1006755829
  0
SEQEND
  8
0
  0
POLYLINE
  8
0
 62
0
 70
1
 66
1
 10
0.0
 20
0.0
 30
0.0
  0
VERTEX
  8
0
 10
18.8
 20
33.8450961113
  0
VERTEX
  8
0
 10
18.8
 20
33.8450961113
  0
VERTEX
  8
0
 10
19.0
 20
33.8450961113
  0
VERTEX
  8
0
 10
19.0
 20
33.8450961113
  0
SEQEND
  8
0
  0
POLYLINE
  8
0
 62
0
 70
1
 66
1
 10
0.0
 20
0.0
 30
0.0
  0
VERTEX
  8
0
 10
18.8
 20
33.8450961113
  0
VERTEX
  8
0
 10
18.8
 20
35.0074367523
  0
VERTEX
  8
0
 10
18.8
 20
35.0074367523
  0
VERTEX
  8
0
 10
18.8
 20
33.8450961113
  0
SEQEND
  8
0
  0
POLYLINE
  8
0
 62
0
 70
1
 66
1
 10
0.0
 20
0.0
 30
0.0
  0
VERTEX
  8
0
 10
18.8
 20
35.0074367523
  0
VERTEX
  8
0
 10
18.8
 20
35.6343171597
  0
VERTEX
  8
0
 10
18.8
 20
35.6343171597
  0
VERTEX
  8
0
 10
18.8
 20
35.0074367523
  0
SEQEND
  8
0
  0
POLYLINE
  8
0
 62
0
 70
1
 66
1
 10
0.0
 20
0.0
 30
0.0
  0
VERTEX
  8
0
 10
18.8
 20
35.0074367523
  0
VERTEX
  8
0
 10
18.8
 20
33.8450961113
  0
VERTEX
  8
0
 10
18.8
 20
33.8450961113
  0
VERTEX
  8
0
 10
18.8
 20
35.0074367523
  0
SEQEND
  8
0
  0
POLYLINE
  8
0
 62
0
 70
1
 66
1
 10
0.0
 20
0.0
 30
0.0
  0
VERTEX
  8
0
 10
18.8
 20
33.1006755829
  0
VERTEX
  8
0
 10
18.8
 20
33.8450961113
  0
VERTEX
  8
0
 10
18.8
 20
33.8450961113
  0
VERTEX
  8
0
 10
18.8
 20
33.1006755829
  0
SEQEND
  8
0
  0
POLYLINE
  8
0
 62
0
 70
1
 66
1
 10
0.0
 20
0.0
 30
0.0
  0
VERTEX
  8
0
 10
18.8
 20
33.8450961113
  0
VERTEX
  8
0
 10
18.8
 20
35.0074367523
  0
VERTEX
  8
0
 10
18.8
 20
35.0074367523
  0
VERTEX
  8
0
 10
18.8
 20
33.8450961113
  0
SEQEND
  8
0
  0
ENDBLK
  0
BLOCK
  8
0
  2
PART__MIRRORING002
 70
0
 10
0.0
 20
0.0
 30
0.0
  3
PART__MIRRORING002
  0
POLYLINE
  8
0
 62
0
 70
1
 66
1
 10
0.0
 20
0.0
 30
0.0
  0
VERTEX
  8
0
 10
0.667029190037
 20
43.5409046936
  0
VERTEX
  8
0
 10
0.667029190037
 20
43.5409046936
  0
VERTEX
  8
0
 10
0.0058258056379
 20
43.0560223389
  0
VERTEX
  8
0
 10
0.0058258056379
 20
43.0560223389
  0
SEQEND
  8
0
  0
POLYLINE
  8
0
 62
0
 70
1
 66
1
 10
0.0
 20
0.0
 30
0.0
  0
VERTEX
  8
0
 10
0.9161779968
 20
43.5409046936
  0
VERTEX
  8
0
 10
1.72495346067
 20
43.5409046936
  0
VERTEX
  8
0
 10
1.72495346067
 20
43.5409046936
  0
VERTEX
  8
0
 10
0.667029190037
 20
43.5409046936
  0
VERTEX
  8
0
 10
0.667029190037
 20
43.5409046936
  0
VERTEX
  8
0
 10
0.9161779968
 20
43.5409046936
  0
SEQEND
  8
0
  0
POLYLINE
  8
0
 62
0
 70
1
 66
1
 10
0.0
 20
0.0
 30
0.0
  0
VERTEX
  8
0
 10
0.0058258056379
 20
43.0560223389
  0
VERTEX
  8
0
 10
0.0058258056379
 20
43.0560223389
  0
VERTEX
  8
0
 10
-0.0382530212664
 20
42.1744190979
  0
VERTEX
  8
0
 10
-0.0382530212664
 20
42.1744190979
  0
SEQEND
  8
0
  0
POLYLINE
  8
0
 62
0
 70
1
 66
1
 10
0.0
 20
0.0
 30
0.0
  0
VERTEX
  8
0
 10
1.76903419492
 20
44.1139485168
  0
VERTEX
  8
0
 10
1.72495346067
 20
43.5409046936
  0
VERTEX
  8
0
 10
0.667029190037
 20
43.5409046936
  0
VERTEX
  8
0
 10
0.0058258056379
 20
43.0560223389
  0
VERTEX
  8
0
 10
-0.0382530212664
 20
42.1744190979
  0
VERTEX
  8
0
 10
-0.65537948611
 20
42.1744190979
  0
VERTEX
  8
0
 10
-0.65537948611
 20
43.5409046936
  0
VERTEX
  8
0
 10
0.226227569554
 20
44.1580273437
  0
SEQEND
  8
0
  0
POLYLINE
  8
0
 62
0
 70
1
 66
1
 10
0.0
 20
0.0
 30
0.0
  0
VERTEX
  8
0
 10
1.76522159775
 20
44.0643852486
  0
VERTEX
  8
0
 10
0.9161779968
 20
44.0643852486
  0
VERTEX
  8
0
 10
0.9161779968
 20
43.5409046936
  0
VERTEX
  8
0
 10
0.667029190037
 20
43.5409046936
  0
VERTEX
  8
0
 10
0.0058258056379
 20
43.0560223389
  0
VERTEX
  8
0
 10
-0.0382530212664
 20
42.1744190979
  0
VERTEX
  8
0
 10
-0.65537948611
 20
42.1744190979
  0
VERTEX
  8
0
 10
-0.65537948611
 20
43.5409046936
  0
VERTEX
  8
0
 10
0.226227569554
 20
44.1580273437
  0
VERTEX
  8
0
 10
1.76903419492
 20
44.1139485168
  0
SEQEND
  8
0
  0
POLYLINE
  8
0
 62
0
 70
1
 66
1
 10
0.0
 20
0.0
 30
0.0
  0
VERTEX
  8
0
 10
1.72495346067
 20
43.5409046936
  0
VERTEX
  8
0
 10
1.76522159775
 20
44.0643852486
  0
VERTEX
  8
0
 10
3.9161779968
 20
44.0643852486
  0
VERTEX
  8
0
 10
3.9161779968
 20
41.0843852295
  0
VERTEX
  8
0
 10
0.9161779968
 20
41.0843852295
  0
VERTEX
  8
0
 10
0.9161779968
 20
43.5409046936
  0
SEQEND
  8
0
  0
POLYLINE
  8
0
 62
0
 70
1
 66
1
 10
0.0
 20
0.0
 30
0.0
  0
VERTEX
  8
0
 10
1.76522159775
 20
44.0643852486
  0
VERTEX
  8
0
 10
1.76522159775
 20
44.0643852486
  0
VERTEX
  8
0
 10
1.76903419492
 20
44.1139485168
  0
VERTEX
  8
0
 10
1.76903419492
 20
44.1139485168
  0
VERTEX
  8
0
 10
1.72495346067
 20
43.5409046936
  0
VERTEX
  8
0
 10
1.72495346067
 20
43.5409046936
  0
SEQEND
  8
0
  0
POLYLINE
  8
0
 62
0
 70
1
 66
1
 10
0.0
 20
0.0
 30
0.0
  0
VERTEX
  8
0
 10
0.9161779968
 20
43.5409046936
  0
VERTEX
  8
0
 10
0.9161779968
 20
43.5409046936
  0
VERTEX
  8
0
 10
0.9161779968
 20
41.0843852295
  0
VERTEX
  8
0
 10
0.9161779968
 20
41.0843852295
  0
VERTEX
  8
0
 10
0.9161779968
 20
44.0643852486
  0
VERTEX
  8
0
 10
0.9161779968
 20
44.0643852486
  0
SEQEND
  8
0
  0
POLYLINE
  8
0
 62
0
 70
1
 66
1
 10
0.0
 20
0.0
 30
0.0
  0
VERTEX
  8
0
 10
-0.0382530212664
 20
42.1744190979
  0
VERTEX
  8
0
 10
-0.0382530212664
 20
42.1744190979
  0
VERTEX
  8
0
 10
-0.65537948611
 20
42.1744190979
  0
VERTEX
  8
0
 10
-0.65537948611
 20
42.1744190979
  0
SEQEND
  8
0
  0
POLYLINE
  8
0
 62
0
 70
1
 66
1
 10
0.0
 20
0.0
 30
0.0
  0
VERTEX
  8
0
 10
-0.65537948611
 20
42.1744190979
  0
VERTEX
  8
0
 10
-0.65537948611
 20
42.1744190979
  0
VERTEX
  8
0
 10
-0.65537948611
 20
43.5409046936
  0
VERTEX
  8
0
 10
-0.65537948611
 20
43.5409046936
  0
SEQEND
  8
0
  0
POLYLINE
  8
0
 62
0
 70
1
 66
1
 10
0.0
 20
0.0
 30
0.0
  0
VERTEX
  8
0
 10
-0.65537948611
 20
43.5409046936
  0
VERTEX
  8
0
 10
-0.65537948611
 20
43.5409046936
  0
VERTEX
  8
0
 10
0.226227569554
 20
44.1580273437
  0
VERTEX
  8
0
 10
0.226227569554
 20
44.1580273437
  0
SEQEND
  8
0
  0
POLYLINE
  8
0
 62
0
 70
1
 66
1
 10
0.0
 20
0.0
 30
0.0
  0
VERTEX
  8
0
 10
0.226227569554
 20
44.1580273437
  0
VERTEX
  8
0
 10
0.226227569554
 20
44.1580273437
  0
VERTEX
  8
0
 10
1.76903419492
 20
44.1139485168
  0
VERTEX
  8
0
 10
1.76903419492
 20
44.1139485168
  0
SEQEND
  8
0
  0
POLYLINE
  8
0
 62
0
 70
1
 66
1
 10
0.0
 20
0.0
 30
0.0
  0
VERTEX
  8
0
 10
1.76522159775
 20
44.0643852486
  0
VERTEX
  8
0
 10
1.76522159775
 20
44.0643852486
  0
VERTEX
  8
0
 10
0.9161779968
 20
44.0643852486
  0
VERTEX
  8
0
 10
0.9161779968
 20
44.0643852486
  0
VERTEX
  8
0
 10
3.9161779968
 20
44.0643852486
  0
VERTEX
  8
0
 10
3.9161779968
 20
44.0643852486
  0
SEQEND
  8
0
  0
POLYLINE
  8
0
 62
0
 70
1
 66
1
 10
0.0
 20
0.0
 30
0.0
  0
VERTEX
  8
0
 10
3.9161779968
 20
41.0843852295
  0
VERTEX
  8
0
 10
3.9161779968
 20
44.0643852486
  0
VERTEX
  8
0
 10
3.9161779968
 20
44.0643852486
  0
VERTEX
  8
0
 10
3.9161779968
 20
41.0843852295
  0
SEQEND
  8
0
  0
POLYLINE
  8
0
 62
0
 70
1
 66
1
 10
0.0
 20
0.0
 30
0.0
  0
VERTEX
  8
0
 10
3.9161779968
 20
41.0843852295
  0
VERTEX
  8
0
 10
0.9161779968
 20
41.0843852295
  0
VERTEX
  8
0
 10
0.9161779968
 20
41.0843852295
  0
VERTEX
  8
0
 10
3.9161779968
 20
41.0843852295
  0
SEQEND
  8
0
  0
POLYLINE
  8
0
 62
0
 70
1
 66
1
 10
0.0
 20
0.0
 30
0.0
  0
VERTEX
  8
0
 10
3.9161779968
 20
41.0843852295
  0
VERTEX
  8
0
 10
0.9161779968
 20
41.0843852295
  0
VERTEX
  8
0
 10
0.9161779968
 20
44.0643852486
  0
VERTEX
  8
0
 10
3.9161779968
 20
44.0643852486
  0
SEQEND
  8
0
  0
ENDBLK
  0
ENDSEC
  0
SECTION
  2
ENTITIES
  0
INSERT
  2
COMMON
  8
0
 10
0.0
 20
0.0
 30
0.0
  0
INSERT
  2
FILLET002
  8
0
 10
0.0
 20
0.0
 30
0.0
  0
INSERT
  2
COMMON002
  8
0
 10
0.0
 20
0.0
 30
0.0
  0
INSERT
  2
CUT002
  8
0
 10
0.0
 20
0.0
 30
0.0
  0
INSERT
  2
FUSION003
  8
0
 10
0.0
 20
0.0
 30
0.0
  0
INSERT
  2
CUT008
  8
0
 10
0.0
 20
0.0
 30
0.0
  0
POLYLINE
  8
0
 62
0
 70
0
 66
1
 10
0.0
 20
0.0
 30
0.0
  0
VERTEX
  8
0
 10
8.5754375492
 20
62.9001388465
  0
VERTEX
  8
0
 10
8.5754375492
 20
67.9001388465
  0
VERTEX
  8
0
 10
8.5754375492
 20
67.9001388465
  0
SEQEND
  8
0
  0
CIRCLE
  8
0
 62
0
 10
9.5754375492
 20
62.9001388465
 30
11.3174774421
 40
1.0
  0
CIRCLE
  8
0
 62
0
 10
9.5754375492
 20
67.9001388465
 30
11.3174774421
 40
1.0
  0
INSERT
  2
CUT006
  8
0
 10
0.0
 20
0.0
 30
0.0
  0
INSERT
  2
FUSION001
  8
0
 10
0.0
 20
0.0
 30
0.0
  0
POLYLINE
  8
0
 62
0
 70
0
 66
1
 10
0.0
 20
0.0
 30
0.0
  0
VERTEX
  8
0
 10
18.8
 20
19.72
  0
VERTEX
  8
0
 10
20.8
 20
19.72
  0
VERTEX
  8
0
 10
20.8
 20
19.72
  0
SEQEND
  8
0
  0
CIRCLE
  8
0
 62
0
 10
18.8
 20
21.72
 30
11.075
 40
2.0
  0
CIRCLE
  8
0
 62
0
 10
20.8
 20
21.72
 30
11.075
 40
2.0
  0
INSERT
  2
CUT001
  8
0
 10
0.0
 20
0.0
 30
0.0
  0
INSERT
  2
CUT009
  8
0
 10
0.0
 20
0.0
 30
0.0
  0
INSERT
  2
PART__MIRRORING002
  8
0
 10
0.0
 20
0.0
 30
0.0
  0
ENDSEC
  0
EOF
